<?xml version="1.0" encoding="utf-8"?>
<!-- Generator: Adobe Illustrator 26.0.1, SVG Export Plug-In . SVG Version: 6.00 Build 0)  -->
<svg version="1.1" xmlns="http://www.w3.org/2000/svg" xmlns:xlink="http://www.w3.org/1999/xlink" x="0px" y="0px"
	 viewBox="0 0 1366 768" style="enable-background:new 0 0 1366 768;" xml:space="preserve">
<style type="text/css">
	.st0{display:none;}
	.st1{display:inline;fill:#021E3D;}
	.st2{fill:url(#SVGID_1_);}
	.st3{font-family:'ProximaNova-Bold';}
	.st4{font-size:120px;}
	.st5{letter-spacing:23.9;}
	.st6{fill:#FFA888;}
</style>
<g id="Layer_1" class="st0">
</g>
<g id="BGCOLOR" class="st0">
	<rect x="0" class="st1" width="1366" height="768"/>
	<rect x="1419" y="783" class="st1" width="0" height="27.6"/>
</g>
<g id="Layer_2">
	<g>
		<linearGradient id="SVGID_1_" gradientUnits="userSpaceOnUse" x1="478.6089" y1="318.52" x2="859.4395" y2="318.52">
			<stop  offset="0" style="stop-color:#AE67FA"/>
			<stop  offset="1" style="stop-color:#F0956F"/>
		</linearGradient>
		<path class="st2" d="M833.8,289.5c-280.2-68.2-73.6,184.6-164.3,184.6S414.3,288.1,505.1,289.5C659.9,291.8,578.7,163,669.4,163
			S922.4,311.1,833.8,289.5z"/>
	</g>
</g>
<g id="Layer_4">
	<g>
		<g>
			<text transform="matrix(1.0034 0 0 1 477.8867 602.0264)" class="st3 st4 st5">JARM</text>
			<text transform="matrix(1.0034 0 0 1 477.8867 602.0264)" class="st6 st3 st4 st5">JARM</text>
		</g>
		<path class="st6" d="M457.4,560h-132c-2.9,0-5.2-2.3-5.2-5.2l0,0c0-2.9,2.3-5.2,5.2-5.2h132c2.9,0,5.2,2.3,5.2,5.2l0,0
			C462.6,557.7,460.3,560,457.4,560z"/>
		<path class="st6" d="M1029.3,559.8h-132c-2.9,0-5.2-2.3-5.2-5.2v0c0-2.9,2.3-5.2,5.2-5.2h132c2.9,0,5.2,2.3,5.2,5.2v0
			C1034.5,557.5,1032.2,559.8,1029.3,559.8z"/>
	</g>
	<path class="st6" d="M1022.1,551.7V263.9c0-2.9,2.3-5.2,5.2-5.2h2.1c2.9,0,5.2,2.3,5.2,5.2v287.8c0,2.9-2.3,5.2-5.2,5.2h-2.1
		C1024.4,556.8,1022.1,554.5,1022.1,551.7z"/>
	<path class="st6" d="M320.3,552.8V265c0-2.9,2.3-5.2,5.2-5.2h2.1c2.9,0,5.2,2.3,5.2,5.2v287.8c0,2.9-2.3,5.2-5.2,5.2h-2.1
		C322.6,558,320.3,555.7,320.3,552.8z"/>
</g>
</svg>
